<svg width="12" height="20" viewBox="0 0 12 20" fill="none" xmlns="http://www.w3.org/2000/svg">
<path d="M2.87518 19.1L11.3002 10.7C11.4002 10.6 11.4712 10.4917 11.5132 10.375C11.5552 10.2583 11.5758 10.1333 11.5752 10C11.5752 9.86667 11.5545 9.74167 11.5132 9.625C11.4718 9.50833 11.4008 9.4 11.3002 9.3L2.87518 0.875C2.64185 0.641666 2.35018 0.525 2.00018 0.525C1.65018 0.525 1.35018 0.65 1.10018 0.9C0.850181 1.15 0.725181 1.44167 0.725181 1.775C0.725181 2.10833 0.850181 2.4 1.10018 2.65L8.45018 10L1.10018 17.35C0.866847 17.5833 0.75018 17.871 0.75018 18.213C0.75018 18.555 0.87518 18.8507 1.12518 19.1C1.37518 19.35 1.66685 19.475 2.00018 19.475C2.33351 19.475 2.62518 19.35 2.87518 19.1Z" fill="#5CAC0E"/>
</svg>
