<svg width="12" height="20" viewBox="0 0 12 20" fill="none" xmlns="http://www.w3.org/2000/svg">
<path d="M9.12482 19.1L0.69982 10.7C0.59982 10.6 0.52882 10.4917 0.48682 10.375C0.44482 10.2583 0.424154 10.1333 0.42482 10C0.42482 9.86667 0.445487 9.74167 0.48682 9.625C0.528153 9.50833 0.599153 9.4 0.69982 9.3L9.12482 0.875C9.35815 0.641667 9.64982 0.525 9.99982 0.525C10.3498 0.525 10.6498 0.65 10.8998 0.9C11.1498 1.15 11.2748 1.44167 11.2748 1.775C11.2748 2.10833 11.1498 2.4 10.8998 2.65L3.54982 10L10.8998 17.35C11.1332 17.5833 11.2498 17.871 11.2498 18.213C11.2498 18.555 11.1248 18.8507 10.8748 19.1C10.6248 19.35 10.3332 19.475 9.99982 19.475C9.66649 19.475 9.37482 19.35 9.12482 19.1Z" fill="#5CAC0E"/>
</svg>
