<svg width="24" height="24" viewBox="0 0 24 24" fill="none" xmlns="http://www.w3.org/2000/svg">
<rect width="24" height="24" fill="#E5E5E5"/>
<g id="Aplicativo - Sr Camel&#195;&#180;">
<path d="M-2602 -2128C-2602 -2129.1 -2601.1 -2130 -2600 -2130H6360C6361.1 -2130 6362 -2129.1 6362 -2128V1218C6362 1219.1 6361.1 1220 6360 1220H-2600C-2601.1 1220 -2602 1219.1 -2602 1218V-2128Z" fill="#C6D7F9"/>
<g id="Primeiro Acesso 2 - Vendedor" clip-path="url(#clip0_0_1)">
<rect width="390" height="875" transform="translate(-184 -297)" fill="#FF6700"/>
<rect id="Rectangle 13" x="-184" y="-266" width="390" height="844" fill="#FF6700"/>
<path id="Rectangle 6" d="M-184 -184C-184 -189.523 -179.523 -194 -174 -194H196C201.523 -194 206 -189.523 206 -184V578H-184V-184Z" fill="white"/>
<g id="adicionar-produto">
<rect id="Rectangle 24" x="-8" y="-8" width="40" height="40" rx="20" fill="#FF6700"/>
<g id="ic:round-plus">
<path id="Vector" d="M18 12.998H13V17.998C13 18.2633 12.8946 18.5176 12.7071 18.7052C12.5196 18.8927 12.2652 18.998 12 18.998C11.7348 18.998 11.4804 18.8927 11.2929 18.7052C11.1054 18.5176 11 18.2633 11 17.998V12.998H6C5.73478 12.998 5.48043 12.8927 5.29289 12.7052C5.10536 12.5176 5 12.2633 5 11.998C5 11.7328 5.10536 11.4785 5.29289 11.2909C5.48043 11.1034 5.73478 10.998 6 10.998H11V5.99805C11 5.73283 11.1054 5.47848 11.2929 5.29094C11.4804 5.1034 11.7348 4.99805 12 4.99805C12.2652 4.99805 12.5196 5.1034 12.7071 5.29094C12.8946 5.47848 13 5.73283 13 5.99805V10.998H18C18.2652 10.998 18.5196 11.1034 18.7071 11.2909C18.8946 11.4785 19 11.7328 19 11.998C19 12.2633 18.8946 12.5176 18.7071 12.7052C18.5196 12.8927 18.2652 12.998 18 12.998Z" fill="white"/>
</g>
</g>
</g>
<path d="M-2600 -2129H6360V-2131H-2600V-2129ZM6361 -2128V1218H6363V-2128H6361ZM6360 1219H-2600V1221H6360V1219ZM-2601 1218V-2128H-2603V1218H-2601ZM-2600 1219C-2600.55 1219 -2601 1218.55 -2601 1218H-2603C-2603 1219.66 -2601.66 1221 -2600 1221V1219ZM6361 1218C6361 1218.55 6360.55 1219 6360 1219V1221C6361.66 1221 6363 1219.66 6363 1218H6361ZM6360 -2129C6360.55 -2129 6361 -2128.55 6361 -2128H6363C6363 -2129.66 6361.66 -2131 6360 -2131V-2129ZM-2600 -2131C-2601.66 -2131 -2603 -2129.66 -2603 -2128H-2601C-2601 -2128.55 -2600.55 -2129 -2600 -2129V-2131Z" fill="black" fill-opacity="0.1"/>
</g>
<defs>
<clipPath id="clip0_0_1">
<rect width="390" height="875" fill="white" transform="translate(-184 -297)"/>
</clipPath>
</defs>
</svg>
